<?xml version="1.0" standalone="no"?>
<!DOCTYPE svg PUBLIC "-//W3C//DTD SVG 20010904//EN"
 "http://www.w3.org/TR/2001/REC-SVG-20010904/DTD/svg10.dtd">
<svg version="1.0" xmlns="http://www.w3.org/2000/svg"
 width="5000.000000pt" height="817.000000pt" viewBox="0 0 5000.000000 817.000000"
 preserveAspectRatio="xMidYMid meet">

<g transform="translate(0.000000,817.000000) scale(0.100000,-0.100000)"
fill="#000000" stroke="none">
<path d="M49336 8159 c-160 -38 -327 -197 -379 -360 -5 -14 -255 -16 -2714
-22 -1489 -4 -3914 -7 -5388 -7 -1474 0 -3492 -3 -4485 -7 l-1806 -6 -399
-629 -400 -628 -9716 0 c-5344 0 -10101 3 -10572 7 l-856 6 -518 618 -518 619
-5260 0 -5260 0 -13 42 c-36 115 -149 240 -271 301 -286 143 -634 -4 -742
-314 -32 -92 -32 -239 -1 -331 60 -173 202 -308 373 -353 72 -20 212 -19 280
1 141 41 269 147 333 275 20 39 36 78 36 85 0 12 811 14 5198 14 l5197 -1 320
-382 c176 -210 411 -491 523 -624 l203 -243 10711 2 10711 3 397 625 397 625
2809 6 c1545 4 4747 9 7115 12 l4305 4 34 -76 c25 -55 54 -96 104 -148 181
-191 455 -225 675 -84 107 69 203 203 230 321 16 68 13 209 -5 271 -53 179
-194 320 -373 373 -60 18 -210 20 -275 5z m218 -281 c55 -16 138 -99 154 -154
52 -177 -64 -339 -242 -337 -101 1 -178 48 -223 138 -66 130 -7 291 129 350
41 18 127 19 182 3z m-48882 -45 c142 -77 172 -277 60 -397 -108 -115 -319
-94 -397 39 -38 64 -49 124 -35 188 35 169 219 253 372 170z"/>
<path d="M34194 5853 l-811 -1378 -1466 -3 c-1388 -2 -1465 -1 -1472 15 -14
38 -23 172 -15 233 12 98 44 172 102 235 178 196 577 187 815 -17 34 -29 102
-89 150 -132 113 -102 153 -120 249 -114 128 8 243 87 302 208 23 48 26 67 26
150 -1 112 -27 200 -102 345 -37 71 -67 110 -142 186 -118 119 -200 165 -279
156 -27 -3 -78 -20 -113 -38 -91 -47 -122 -50 -303 -32 -132 12 -181 13 -277
4 -347 -35 -649 -188 -914 -463 -185 -192 -302 -399 -368 -648 l-23 -85 -181
-3 -182 -2 1 177 c0 283 13 493 32 529 19 37 50 64 146 124 86 53 102 76 103
139 0 114 -81 177 -272 212 -118 22 -531 19 -640 -4 -177 -38 -260 -104 -260
-207 0 -67 42 -112 160 -170 73 -36 105 -62 126 -102 20 -38 32 -176 40 -455
l7 -243 -571 0 -572 0 6 258 c6 288 16 377 47 424 15 22 51 48 105 76 104 54
133 93 133 177 0 76 -36 137 -106 176 -161 90 -735 118 -1107 54 -108 -19
-164 -42 -219 -92 -70 -63 -87 -138 -50 -212 19 -36 49 -66 144 -144 26 -21
53 -50 61 -65 33 -63 43 -240 29 -516 l-6 -136 -196 2 -196 3 -7 65 c-9 87
-45 239 -75 325 -129 358 -401 627 -742 731 -210 64 -523 90 -879 74 -114 -6
-395 -10 -625 -10 -267 0 -436 -4 -470 -11 -70 -15 -130 -45 -166 -81 -28 -29
-55 -103 -47 -130 2 -7 7 -25 10 -40 10 -44 56 -88 129 -124 137 -67 137 -66
137 -486 l0 -318 -277 0 -278 0 -1 94 c-5 418 -358 850 -821 1005 -272 92
-591 101 -886 26 -415 -106 -772 -397 -957 -780 -53 -109 -83 -193 -101 -285
l-12 -60 -1409 0 -1410 0 4 233 c3 216 5 235 25 273 26 48 67 69 120 61 49 -8
85 -45 150 -157 124 -212 208 -280 345 -281 103 -1 168 23 225 83 58 60 77
120 77 233 0 56 -8 131 -17 171 -51 218 -202 450 -338 518 -65 32 -122 34
-238 6 -154 -37 -253 -41 -876 -38 -578 4 -604 5 -715 27 -181 36 -241 20
-354 -93 -110 -110 -203 -270 -252 -433 -36 -117 -39 -256 -8 -324 49 -106
142 -166 242 -156 121 13 218 91 362 293 85 119 124 154 173 154 91 0 116 -81
117 -377 l0 -193 -505 0 c-474 0 -505 1 -505 18 0 38 -64 213 -120 327 -76
156 -169 285 -295 411 -294 292 -678 426 -1132 393 -560 -39 -999 -318 -1228
-777 -174 -351 -181 -835 -16 -1188 l38 -81 -408 -505 -408 -505 -3257 -6
c-1792 -4 -4190 -7 -5331 -7 -1966 0 -2074 1 -2079 18 -21 62 -73 151 -120
201 -106 115 -233 172 -382 172 -107 1 -167 -13 -256 -59 -179 -93 -285 -267
-285 -467 -1 -109 10 -160 52 -244 102 -208 339 -329 566 -291 170 28 330 153
401 313 l35 77 4376 0 c2407 0 4834 3 5395 7 l1019 6 415 515 c228 282 419
516 423 519 4 2 50 -36 101 -85 355 -339 883 -474 1396 -358 58 13 134 34 170
46 102 35 286 125 375 185 314 211 544 576 579 918 3 31 9 82 12 112 l5 55
481 0 480 0 -6 -137 c-22 -457 -45 -621 -96 -686 -14 -18 -49 -35 -115 -57
-51 -17 -106 -40 -120 -52 -56 -44 -70 -119 -36 -193 59 -130 259 -192 699
-216 341 -19 649 8 817 71 85 33 161 110 170 175 15 98 -32 163 -159 219 -113
50 -152 95 -175 204 -7 33 -11 172 -11 362 l0 310 1400 0 1400 0 0 -48 c0 -27
7 -91 16 -143 87 -512 448 -929 934 -1079 140 -43 256 -61 430 -67 397 -13
746 95 1053 325 247 186 311 384 179 556 -20 27 -57 60 -82 74 -57 32 -94 26
-181 -28 -213 -133 -435 -200 -614 -186 -146 11 -253 55 -378 156 -116 93
-187 215 -187 320 0 73 -44 69 720 72 l685 3 46 23 c44 21 53 22 384 22 l338
0 -7 -197 c-13 -374 -28 -516 -63 -595 -16 -39 -43 -55 -143 -92 -51 -18 -97
-56 -111 -93 -24 -65 -1 -161 53 -209 74 -68 172 -87 376 -72 100 7 308 8 652
2 814 -14 869 -11 1104 63 460 146 757 491 855 993 11 58 23 126 26 153 l6 47
188 0 188 0 7 -157 c9 -198 21 -305 47 -413 71 -290 317 -518 692 -641 356
-117 830 -116 1197 2 209 67 356 156 488 293 171 178 225 346 239 739 l6 177
166 0 167 0 17 -122 c40 -293 155 -529 361 -746 164 -172 357 -296 566 -366
265 -88 577 -99 853 -30 236 59 391 142 617 329 58 48 143 110 189 138 46 28
98 69 116 90 88 103 139 361 100 510 -29 110 -107 187 -189 187 -56 0 -89 -25
-142 -107 -79 -123 -187 -212 -348 -289 -121 -57 -234 -84 -357 -84 -160 0
-270 32 -404 118 -113 72 -299 273 -331 357 -6 13 137 15 1315 15 727 0 1321
-2 1321 -4 0 -5 -205 -353 -277 -471 -161 -262 -313 -450 -433 -540 -98 -72
-248 -131 -397 -156 l-73 -12 0 -63 0 -64 935 0 935 0 0 64 0 63 -102 7 c-335
23 -491 65 -568 152 -47 54 -62 98 -62 179 1 124 38 211 240 565 l100 175 988
0 988 0 198 -355 c109 -195 208 -380 219 -410 26 -68 23 -153 -6 -192 -55 -74
-182 -107 -442 -115 l-193 -6 0 -63 0 -64 815 0 814 0 128 -168 c70 -92 175
-231 233 -309 l105 -140 5794 1 5793 1 16 -40 c26 -69 102 -174 158 -219 168
-137 378 -163 572 -71 128 61 241 190 282 323 25 81 27 225 4 303 -42 143
-149 272 -277 333 -90 43 -141 55 -237 56 -147 0 -272 -52 -380 -160 -57 -57
-112 -144 -133 -211 -5 -15 -149 -17 -1579 -22 -865 -4 -3440 -8 -5723 -9
l-4150 -3 -122 160 c-67 88 -122 163 -122 168 -1 4 163 7 364 7 l365 0 0 64 0
63 -67 7 c-103 10 -187 32 -271 71 -133 62 -286 241 -485 570 -36 61 -516 889
-1066 1840 l-999 1730 -44 3 -43 2 -811 -1377z m1053 -1379 c-2 -2 -341 -3
-754 -2 l-750 3 361 615 c199 339 371 633 384 654 l23 39 370 -653 c204 -358
369 -654 366 -656z m-10598 741 c71 -17 159 -60 214 -106 109 -90 211 -337
233 -566 l7 -73 -387 0 -386 0 0 330 c0 370 3 389 62 415 44 19 176 19 257 0z
m-3007 -97 c96 -41 158 -142 166 -269 5 -90 -11 -134 -61 -164 -29 -18 -51
-20 -247 -20 -239 0 -265 6 -290 65 -34 81 10 237 92 326 82 89 217 114 340
62z m-7865 -88 c120 -42 228 -154 318 -330 49 -96 95 -204 95 -222 0 -5 -186
-8 -414 -8 l-413 0 -7 31 c-13 67 -6 236 12 296 63 201 229 296 409 233z m511
-914 c36 -208 33 -390 -5 -489 -58 -146 -161 -214 -312 -205 -94 6 -162 38
-236 112 -99 99 -217 344 -310 644 -4 9 86 12 423 12 l428 0 12 -74z m10832
37 c0 -89 -23 -273 -46 -362 -76 -305 -246 -453 -519 -454 -130 -1 -191 33
-214 118 -7 25 -11 169 -11 388 l0 347 395 0 395 0 0 -37z m3507 -105 c-6
-159 -22 -233 -69 -320 -100 -188 -370 -287 -636 -232 -116 24 -196 66 -272
143 -110 111 -155 230 -167 439 l-6 112 578 0 578 0 -6 -142z m20948 -1406
c198 -101 172 -404 -39 -467 -63 -19 -90 -19 -155 1 -104 31 -173 125 -174
237 0 107 50 186 148 234 41 20 61 23 115 20 39 -2 81 -12 105 -25z m-48950 4
c99 -42 159 -133 158 -240 -1 -143 -106 -248 -249 -249 -178 -2 -294 160 -242
337 15 51 99 137 148 153 51 16 145 15 185 -1z"/>
<path d="M8001 7110 c-209 -56 -317 -206 -270 -374 17 -63 90 -130 199 -187
204 -104 238 -161 261 -429 13 -152 6 -943 -11 -1315 -27 -578 -79 -1084 -126
-1227 -23 -72 -66 -122 -167 -197 -114 -85 -162 -137 -177 -193 -34 -125 47
-280 182 -349 95 -49 198 -58 438 -39 69 6 337 15 595 20 371 7 549 6 845 -6
491 -20 916 -22 1045 -5 413 52 713 188 949 428 225 230 353 494 374 776 24
303 -51 552 -226 752 -126 144 -254 241 -427 323 -49 24 -102 55 -117 69 -64
61 -40 131 81 241 214 194 322 445 322 747 0 352 -150 613 -457 798 -132 79
-291 131 -509 165 -98 15 -179 16 -720 13 -940 -7 -1476 -7 -1755 2 -238 7
-260 6 -329 -13z m1937 -610 c225 -42 342 -251 342 -612 0 -356 -108 -528
-357 -569 -144 -24 -219 13 -242 119 -7 35 -11 199 -11 476 0 445 4 492 48
545 35 44 122 60 220 41z m142 -1826 c234 -68 350 -284 350 -650 0 -391 -145
-566 -466 -566 -75 0 -93 4 -142 29 -48 24 -61 37 -85 83 -52 103 -60 184 -61
605 -1 374 -1 381 21 425 38 76 108 102 248 95 44 -3 105 -12 135 -21z"/>
<path d="M5919 5765 c-404 -66 -733 -253 -950 -541 -117 -157 -196 -321 -237
-499 -150 -646 142 -1292 711 -1570 218 -106 403 -152 647 -162 420 -16 810
124 1133 407 75 65 207 239 274 360 206 374 185 878 -54 1295 -206 360 -522
599 -913 692 -91 22 -134 25 -315 29 -148 2 -235 -1 -296 -11z m215 -590 c73
-34 173 -128 224 -209 170 -268 294 -717 280 -1014 -12 -241 -129 -375 -328
-375 -76 0 -147 28 -217 84 -191 154 -422 779 -423 1144 0 176 102 349 231
388 75 23 160 17 233 -18z"/>
<path d="M2960 5745 c-215 -17 -511 -18 -731 -3 -288 18 -444 -9 -534 -96 -55
-53 -73 -108 -56 -167 15 -50 43 -77 127 -124 96 -54 127 -104 144 -235 12
-99 13 -1108 0 -1280 -13 -174 -33 -268 -70 -318 -15 -21 -63 -66 -107 -98
-64 -48 -80 -67 -91 -101 -18 -55 -2 -112 45 -164 88 -97 264 -143 598 -155
281 -10 556 18 670 70 171 77 175 240 8 346 -74 47 -89 68 -103 141 -20 104
-30 337 -20 452 12 136 23 153 103 151 173 -3 247 -91 322 -384 98 -385 156
-521 270 -636 141 -142 318 -190 638 -172 267 15 435 94 492 232 19 44 19 78
1 119 -22 51 -50 73 -121 97 -77 26 -116 55 -132 101 -7 19 -23 101 -38 183
-63 364 -164 518 -408 621 -80 33 -117 65 -117 99 0 27 27 52 115 106 115 71
212 207 250 355 22 83 22 252 0 335 -49 189 -167 322 -381 429 -208 103 -439
129 -874 96z m138 -447 c27 -14 58 -41 74 -64 53 -77 78 -233 59 -367 -27
-196 -117 -277 -308 -277 -117 0 -117 0 -93 453 11 211 21 249 72 273 46 20
138 12 196 -18z"/>
<path d="M39965 5690 c-140 -38 -228 -42 -880 -38 -605 4 -634 5 -740 26 -163
33 -229 15 -338 -95 -182 -182 -309 -496 -277 -687 16 -100 85 -190 165 -216
51 -17 140 -8 200 20 66 31 164 131 253 256 101 144 150 179 215 155 33 -13
51 -49 67 -136 22 -119 2 -958 -31 -1260 -25 -239 -51 -287 -171 -325 -102
-32 -142 -56 -167 -100 -48 -86 -5 -191 104 -255 133 -78 477 -122 880 -112
326 8 513 45 616 121 105 78 119 221 28 287 -18 13 -71 44 -118 69 -107 57
-136 93 -156 189 -13 62 -15 174 -13 744 3 649 4 673 23 712 28 56 82 82 135
66 48 -14 70 -41 151 -177 75 -125 149 -206 215 -235 137 -61 310 -14 378 103
40 70 52 150 38 268 -24 200 -113 390 -247 526 -114 116 -178 134 -330 94z"/>
<path d="M43585 5694 c-214 -32 -382 -82 -539 -161 -393 -198 -657 -550 -731
-978 -23 -132 -23 -366 -1 -495 107 -604 571 -1040 1211 -1136 153 -23 397
-14 550 20 433 95 751 306 970 644 244 379 261 855 45 1297 -204 417 -537 684
-979 786 -67 16 -131 21 -291 24 -113 2 -218 1 -235 -1z m96 -580 c69 -20 111
-46 178 -109 70 -66 121 -142 186 -279 119 -249 195 -566 195 -816 0 -196 -63
-326 -187 -386 -110 -54 -248 -33 -357 54 -105 85 -221 301 -316 592 -85 256
-122 492 -100 633 25 162 115 280 238 313 64 17 99 17 163 -2z"/>
<path d="M41225 5679 c-126 -12 -349 -54 -440 -83 -96 -31 -149 -67 -175 -120
-44 -92 -18 -144 126 -251 109 -81 125 -112 150 -280 33 -226 26 -1160 -10
-1403 -17 -113 -37 -147 -127 -212 -108 -78 -136 -143 -100 -224 50 -114 222
-171 551 -183 267 -9 617 26 766 78 78 27 146 77 167 122 9 19 17 57 17 84 0
80 -31 115 -173 200 -109 65 -117 123 -124 839 -8 853 7 938 187 1029 26 13
62 38 79 55 27 28 31 38 31 86 0 93 -40 147 -146 195 -142 65 -491 95 -779 68z"/>
<path d="M45805 5683 c-277 -22 -425 -108 -425 -247 0 -79 36 -126 145 -186
123 -68 147 -101 180 -245 44 -186 64 -664 46 -1051 -22 -463 -31 -494 -174
-592 -43 -30 -85 -65 -95 -80 -22 -33 -22 -135 0 -177 67 -127 299 -196 618
-182 158 7 271 28 355 67 108 51 155 112 155 203 0 67 -26 109 -95 155 -134
88 -158 128 -176 292 -15 138 -7 409 14 475 31 95 80 117 170 75 57 -27 39
-11 716 -619 635 -569 687 -614 740 -637 78 -33 177 -4 226 66 33 47 61 135
76 237 7 50 14 374 19 908 6 732 9 839 24 905 26 112 49 146 127 189 124 68
160 115 160 208 0 111 -82 188 -232 218 -102 21 -457 31 -587 16 -218 -24
-322 -97 -322 -226 0 -87 33 -131 147 -199 34 -20 71 -50 83 -65 32 -47 50
-137 57 -293 13 -312 -48 -385 -217 -259 -19 14 -266 229 -550 476 -283 248
-533 464 -555 481 -62 48 -114 71 -192 83 -64 10 -335 13 -438 4z"/>
<path d="M18800 2930 c-195 -35 -364 -184 -422 -375 -104 -336 152 -686 502
-687 47 0 107 5 135 12 167 39 320 179 385 353 l10 28 5457 -6 c3002 -3 6187
-8 7079 -11 l1621 -6 737 -924 738 -924 6954 0 c6375 0 6954 -1 6954 -16 0 -9
17 -48 37 -86 95 -182 268 -287 468 -287 109 -1 160 10 245 52 88 43 197 151
238 237 104 213 68 442 -96 613 -218 225 -561 219 -776 -14 -47 -50 -99 -139
-120 -201 -5 -17 -342 -18 -6888 -17 l-6883 0 -740 929 -740 928 -2695 1
c-1482 1 -4697 4 -7143 8 -4046 6 -4449 8 -4454 22 -40 125 -158 263 -273 319
-107 53 -223 71 -330 52z m189 -296 c97 -40 151 -124 151 -233 0 -80 -22 -131
-76 -183 -52 -49 -100 -68 -176 -68 -147 1 -247 103 -248 251 0 185 178 303
349 233z m30591 -1879 c57 -29 83 -58 111 -120 54 -122 3 -271 -114 -331 -43
-23 -137 -29 -194 -13 -62 17 -143 96 -161 155 -44 150 30 291 175 330 59 16
124 9 183 -21z"/>
<path d="M23095 1783 c-97 -11 -160 -29 -240 -68 -149 -72 -255 -176 -319
-310 -46 -96 -59 -164 -54 -276 16 -322 278 -576 614 -596 112 -7 189 7 300
52 44 18 98 37 118 41 52 9 99 53 136 126 40 80 41 143 4 187 -32 38 -50 39
-95 5 -153 -117 -370 -118 -488 -2 -101 98 -161 291 -131 423 30 135 130 191
267 150 76 -23 128 -66 188 -159 29 -46 66 -93 81 -105 37 -29 110 -29 154 2
72 48 95 114 79 225 -12 82 -37 138 -85 192 l-38 42 -61 -5 c-51 -4 -73 1
-145 28 -70 27 -221 60 -248 54 -4 -1 -20 -4 -37 -6z"/>
<path d="M9655 1771 c-89 -12 -146 -30 -182 -57 -67 -51 -51 -107 41 -145 45
-18 58 -29 66 -55 7 -19 12 -169 13 -385 2 -403 6 -385 -82 -432 -52 -29 -66
-54 -50 -94 18 -49 50 -53 411 -53 191 0 376 -5 435 -12 118 -13 134 -8 180
65 97 152 103 325 13 372 -16 8 -38 15 -49 15 -22 0 -61 -44 -61 -69 0 -9 -13
-38 -28 -66 -35 -65 -87 -94 -179 -101 -86 -7 -132 14 -150 66 -17 51 -17 686
0 720 7 13 30 34 52 47 58 31 65 40 65 77 0 43 -34 75 -102 93 -62 17 -306 25
-393 14z"/>
<path d="M2140 1760 c-36 -4 -160 -8 -276 -9 -202 -1 -212 -2 -245 -24 -62
-42 -44 -126 32 -142 15 -4 40 -15 54 -26 l25 -20 0 -382 c0 -210 -4 -388 -9
-395 -4 -7 -30 -27 -57 -45 -36 -24 -50 -39 -52 -60 -4 -37 41 -82 99 -97 107
-29 337 -30 450 -2 43 11 86 38 99 63 20 37 11 58 -46 99 -30 23 -59 53 -65
66 -5 14 -9 68 -9 120 l0 96 98 -7 c120 -8 216 6 300 45 74 35 160 112 190
173 47 95 53 233 13 323 -46 104 -177 199 -310 224 -59 11 -191 11 -291 0z
m150 -212 c50 -35 71 -84 71 -167 0 -82 -23 -137 -69 -163 -35 -21 -122 -24
-140 -6 -13 13 -18 339 -5 351 3 4 30 7 58 7 37 0 61 -6 85 -22z"/>
<path d="M3180 1754 c-236 -39 -380 -107 -380 -180 0 -37 10 -52 60 -88 73
-52 75 -64 74 -391 0 -326 -5 -353 -64 -390 -22 -14 -41 -31 -41 -38 -8 -81
46 -114 210 -127 144 -12 301 2 347 30 60 38 60 103 -1 137 -21 12 -43 30 -46
40 -12 29 -10 573 3 771 11 177 11 184 -9 210 -17 23 -28 27 -74 28 -30 1 -65
0 -79 -2z"/>
<path d="M5800 1753 c-185 -31 -287 -136 -215 -221 38 -46 73 -55 178 -50 214
12 346 126 263 225 -38 45 -126 63 -226 46z"/>
<path d="M14965 1750 c-133 -27 -225 -89 -225 -153 0 -74 63 -117 172 -117
133 0 259 48 299 113 67 112 -62 194 -246 157z"/>
<path d="M21715 1753 c-258 -57 -345 -97 -345 -158 0 -26 20 -45 77 -74 44
-22 51 -38 44 -98 -4 -38 -23 -43 -72 -17 -49 25 -143 36 -206 24 -127 -23
-250 -114 -312 -230 -41 -77 -65 -187 -56 -260 14 -108 74 -229 151 -301 142
-133 297 -144 460 -34 43 29 58 22 68 -29 4 -22 13 -36 27 -39 29 -8 181 8
266 28 149 34 197 110 116 182 -25 23 -38 45 -44 75 -4 24 -8 235 -9 471 0
413 -1 428 -20 447 -15 15 -32 20 -72 19 -29 -1 -62 -3 -73 -6z m-280 -523
c45 -17 59 -68 58 -211 -1 -209 -36 -284 -121 -263 -46 11 -77 55 -93 132 -23
114 12 288 68 332 29 22 49 25 88 10z"/>
<path d="M29743 1740 c-114 -30 -175 -72 -186 -128 -8 -40 22 -94 63 -114 100
-50 354 8 403 92 23 39 22 91 -3 118 -51 54 -150 65 -277 32z"/>
<path d="M31255 1750 c-178 -36 -269 -131 -204 -214 33 -42 71 -56 151 -56
133 0 259 48 299 113 67 112 -62 194 -246 157z"/>
<path d="M28903 1517 c-226 -141 -241 -155 -229 -221 8 -41 19 -46 97 -46 l59
0 0 -207 c0 -220 10 -318 37 -361 58 -95 141 -143 257 -150 133 -8 244 29 331
109 69 64 79 125 27 172 -19 18 -22 17 -84 -4 -57 -20 -66 -21 -93 -8 -19 9
-34 27 -42 49 -12 36 -18 345 -7 374 5 13 25 16 115 16 100 0 109 2 123 22 18
25 22 133 6 158 -7 11 -37 16 -127 20 l-118 5 -3 89 c-2 50 -8 96 -14 103 -6
8 -33 13 -67 13 -55 0 -62 -4 -268 -133z"/>
<path d="M30414 1539 c-278 -173 -264 -162 -264 -217 0 -27 5 -53 12 -60 7 -7
40 -12 80 -12 l68 0 0 -248 0 -249 31 -62 c54 -108 151 -161 295 -161 216 0
418 166 333 274 -25 31 -34 32 -90 6 -60 -27 -86 -25 -120 9 l-29 30 2 193 3
193 112 3 c132 3 137 7 137 109 0 90 -5 93 -140 93 l-114 0 0 86 c0 115 -6
124 -79 124 -56 0 -62 -3 -237 -111z"/>
<path d="M8281 1445 c-79 -50 -133 -59 -245 -39 -134 24 -254 21 -347 -9 -188
-60 -289 -187 -259 -324 13 -57 21 -71 70 -128 45 -52 48 -61 21 -70 -32 -10
-101 -87 -113 -127 -15 -49 -4 -81 42 -132 45 -49 49 -62 20 -71 -30 -9 -70
-68 -70 -101 1 -46 34 -107 79 -146 141 -120 552 -123 754 -5 190 112 237 337
91 440 -66 47 -138 54 -333 32 -221 -24 -267 -14 -259 52 l3 28 112 2 c259 4
434 105 464 268 6 31 7 65 4 75 -4 14 4 33 29 63 37 45 66 112 66 152 0 28
-36 75 -58 75 -9 0 -41 -16 -71 -35z m-359 -174 c49 -39 68 -191 31 -253 -39
-67 -110 -60 -147 15 -24 50 -33 156 -16 197 24 59 85 78 132 41z m104 -803
c25 -24 11 -62 -29 -82 -75 -35 -231 -28 -287 12 -27 20 -54 67 -47 80 3 4 82
7 176 7 146 0 173 -2 187 -17z"/>
<path d="M17480 1459 c-67 -53 -149 -74 -232 -59 -125 23 -205 29 -281 19
-146 -18 -273 -88 -332 -183 -26 -42 -30 -59 -30 -115 1 -68 24 -131 60 -161
9 -7 25 -26 35 -41 l20 -27 -50 -36 c-52 -37 -90 -97 -90 -141 0 -35 15 -62
58 -107 l35 -37 -46 -44 c-42 -38 -47 -48 -47 -86 0 -54 19 -89 74 -138 137
-121 523 -131 740 -21 52 27 132 103 163 156 33 55 42 151 19 203 -8 20 -30
51 -48 69 -68 68 -145 80 -366 55 -87 -10 -175 -15 -195 -11 -46 9 -74 45 -58
74 10 18 21 20 119 20 230 0 399 85 452 227 6 17 11 56 11 88 0 49 4 62 28 90
63 72 81 149 48 200 -21 32 -52 35 -87 6z m-383 -184 c50 -35 71 -200 34 -262
-23 -37 -71 -52 -107 -32 -34 18 -64 105 -64 184 0 54 4 68 26 94 29 35 75 42
111 16z m111 -813 c14 -21 13 -25 -5 -50 -57 -76 -322 -59 -353 23 -19 51 -21
50 166 50 173 0 177 0 192 -23z"/>
<path d="M3910 1434 c-195 -34 -327 -100 -370 -183 -26 -53 -25 -83 5 -119 56
-67 123 -49 231 64 85 88 115 102 148 69 22 -23 37 -88 34 -148 l-3 -52 -70
-8 c-190 -21 -259 -45 -337 -115 -105 -95 -104 -250 2 -346 93 -84 284 -88
400 -10 44 30 59 30 93 -2 76 -70 194 -72 298 -4 67 44 123 143 101 178 -5 7
-22 16 -38 21 -42 11 -53 52 -54 211 0 175 -13 254 -48 305 -34 50 -108 100
-175 120 -54 16 -174 27 -217 19z m40 -524 c21 -13 19 -120 -4 -154 -20 -32
-65 -35 -91 -6 -25 28 -25 103 1 131 31 34 68 46 94 29z"/>
<path d="M10990 1430 c-236 -33 -410 -226 -410 -455 0 -205 134 -378 335 -431
65 -18 196 -17 264 1 82 21 159 63 212 114 58 57 69 92 43 140 -31 57 -45 60
-116 23 -129 -66 -226 -62 -304 12 -47 45 -66 92 -43 107 8 5 113 9 235 9 220
0 221 0 243 24 112 119 -44 391 -254 444 -61 16 -144 21 -205 12z m97 -170
c17 -6 36 -22 43 -35 18 -33 17 -84 -1 -96 -21 -13 -156 -11 -165 2 -21 35 9
113 50 129 29 12 38 12 73 0z"/>
<path d="M11945 1431 c-213 -35 -365 -139 -365 -249 0 -35 38 -77 76 -85 56
-10 96 12 181 100 68 71 86 84 109 81 47 -5 68 -47 69 -136 l0 -77 -70 -8
c-192 -21 -261 -45 -340 -118 -55 -51 -76 -96 -76 -165 0 -154 127 -253 311
-242 65 4 87 10 144 41 78 43 86 44 112 16 65 -73 201 -77 305 -9 67 44 123
143 101 178 -5 7 -22 16 -38 21 -42 11 -53 53 -54 206 -1 247 -23 315 -124
382 -84 57 -223 83 -341 64z m64 -520 c8 -6 13 -29 13 -70 0 -75 -20 -111 -61
-111 -41 0 -66 33 -66 87 0 38 5 49 33 74 33 30 56 35 81 20z"/>
<path d="M19025 1429 c-219 -32 -396 -167 -356 -273 14 -35 57 -61 103 -60 50
2 103 39 163 115 26 33 57 62 71 65 40 10 71 -10 83 -53 14 -48 14 -150 1
-158 -5 -3 -53 -10 -107 -14 -231 -21 -373 -126 -373 -279 0 -101 84 -205 187
-231 98 -25 211 -8 295 45 50 32 63 30 109 -10 21 -20 54 -38 74 -42 112 -21
247 42 295 137 31 59 27 87 -15 104 -19 8 -40 25 -47 37 -8 15 -14 92 -18 218
-6 218 -12 239 -78 303 -50 48 -124 84 -202 96 -74 12 -100 12 -185 0z m69
-525 c21 -20 21 -96 0 -140 -14 -29 -22 -34 -50 -34 -42 0 -64 30 -64 85 0 45
21 82 54 95 31 13 43 12 60 -6z"/>
<path d="M24220 1430 c-97 -12 -188 -50 -279 -115 -167 -120 -227 -356 -139
-547 48 -103 159 -189 289 -223 70 -19 207 -19 286 0 178 42 339 170 393 312
18 48 21 73 18 148 -3 75 -9 101 -36 158 -64 138 -201 242 -352 266 -71 12
-97 12 -180 1z m73 -227 c42 -47 86 -207 89 -325 2 -82 -6 -104 -44 -117 -39
-14 -75 2 -100 45 -28 47 -69 220 -71 294 -3 87 17 120 72 120 23 0 44 -7 54
-17z"/>
<path d="M27295 1426 c-62 -16 -89 -28 -140 -60 -45 -28 -55 -26 -55 13 0 41
-17 51 -86 51 -114 0 -367 -92 -423 -154 -30 -32 -33 -86 -7 -115 10 -11 34
-23 54 -28 32 -8 37 -13 45 -48 4 -22 7 -150 5 -285 -3 -208 -6 -250 -21 -277
-9 -17 -25 -34 -35 -37 -59 -19 -79 -82 -41 -130 95 -121 517 -163 599 -59 33
42 26 71 -30 123 -46 43 -50 50 -50 93 0 25 5 49 10 52 6 3 39 -4 74 -16 141
-47 280 -6 393 115 94 99 133 199 133 336 0 141 -49 268 -132 346 -84 79 -190
108 -293 80z m-69 -274 c43 -34 58 -81 59 -177 0 -107 -21 -176 -61 -194 -40
-18 -91 -14 -115 10 -19 19 -20 28 -14 122 14 244 18 257 78 257 18 0 42 -8
53 -18z"/>
<path d="M28210 1433 c-116 -11 -237 -71 -313 -153 -233 -251 -117 -647 216
-736 96 -26 252 -13 342 27 48 22 128 75 151 100 50 56 46 138 -7 168 -25 14
-31 13 -85 -16 -140 -74 -273 -57 -333 41 -18 28 -28 71 -18 78 1 1 108 5 237
8 l234 5 23 34 c30 44 31 120 2 197 -27 72 -122 170 -199 206 -46 22 -180 52
-207 46 -4 0 -24 -3 -43 -5z m108 -198 c25 -30 30 -86 8 -104 -22 -18 -156
-10 -169 10 -15 24 0 68 34 102 26 25 35 29 67 24 22 -4 46 -17 60 -32z"/>
<path d="M32155 1434 c-116 -14 -215 -51 -298 -113 -73 -53 -115 -104 -151
-181 -26 -56 -31 -78 -34 -165 -4 -114 14 -181 67 -259 159 -231 551 -250 808
-39 195 160 203 433 18 619 -72 73 -160 118 -262 133 -71 11 -89 11 -148 5z
m49 -239 c55 -59 108 -345 75 -406 -16 -31 -54 -41 -93 -25 -28 12 -38 25 -56
73 -30 80 -60 218 -60 279 0 68 27 104 76 104 24 0 42 -8 58 -25z"/>
<path d="M4617 1419 c-90 -13 -134 -27 -165 -54 -58 -49 -48 -106 26 -144 20
-10 45 -28 54 -38 17 -18 175 -346 260 -537 57 -131 52 -211 -14 -204 -28 3
-33 9 -48 56 -21 65 -52 99 -102 114 -103 31 -213 -76 -193 -186 20 -107 127
-177 272 -178 238 -1 363 133 513 552 128 356 152 402 235 447 73 39 94 76 70
122 -45 88 -356 77 -397 -14 -11 -24 -9 -34 17 -80 34 -63 35 -116 5 -175 -42
-82 -77 -70 -131 43 -34 74 -34 72 -9 120 39 73 14 126 -72 152 -56 16 -221
19 -321 4z"/>
<path d="M5880 1415 c-101 -21 -240 -64 -282 -87 -69 -39 -66 -114 6 -152 20
-11 39 -29 42 -42 3 -13 7 -90 8 -171 1 -173 -8 -208 -65 -254 -31 -24 -39
-37 -39 -63 0 -36 27 -68 73 -85 79 -30 348 -31 449 -1 42 12 88 61 88 93 0
12 -21 42 -47 70 l-48 48 -3 312 c-3 353 -2 348 -76 346 -23 0 -70 -7 -106
-14z"/>
<path d="M6465 1396 c-214 -64 -275 -97 -275 -151 0 -28 8 -40 44 -69 55 -45
58 -68 46 -281 l-9 -158 -35 -36 c-52 -53 -46 -105 15 -136 48 -26 188 -37
302 -25 113 11 164 32 187 73 14 26 13 31 -17 87 l-33 59 0 153 c0 217 12 248
95 248 56 0 73 -15 91 -77 13 -43 15 -87 12 -197 -4 -144 -14 -183 -52 -215
-25 -21 -20 -68 10 -96 32 -30 95 -39 243 -37 148 2 216 16 253 52 38 38 35
61 -12 121 -35 44 -40 57 -40 102 0 29 -5 129 -10 223 -7 130 -14 185 -30 226
-36 96 -125 157 -242 166 -100 7 -149 -10 -223 -80 -35 -32 -69 -58 -78 -58
-16 0 -30 40 -22 62 3 7 -4 28 -15 46 -26 42 -59 42 -205 -2z"/>
<path d="M12835 1413 c-91 -19 -203 -58 -235 -82 -61 -44 -64 -107 -7 -141 58
-34 57 -31 56 -183 0 -204 -6 -227 -62 -280 -49 -45 -59 -77 -36 -119 30 -55
211 -84 428 -68 141 11 185 27 209 77 25 52 9 82 -62 118 -33 17 -63 39 -67
50 -4 11 -8 87 -8 168 -1 186 4 191 115 102 34 -27 45 -30 109 -30 63 0 76 3
109 28 92 71 120 174 72 269 -31 65 -79 99 -145 106 -72 7 -118 -13 -178 -76
-32 -33 -58 -52 -67 -49 -8 3 -17 27 -21 56 -5 35 -13 55 -25 61 -26 14 -102
11 -185 -7z"/>
<path d="M13786 1394 c-264 -77 -327 -141 -220 -223 l44 -33 -1 -157 c0 -206
-8 -248 -48 -282 -35 -29 -44 -76 -21 -104 41 -49 172 -71 336 -55 120 11 172
31 192 73 12 25 11 33 -17 87 -31 59 -31 60 -31 222 0 135 3 169 18 198 15 32
21 35 64 38 26 2 56 -2 67 -7 31 -17 51 -105 51 -224 0 -131 -13 -201 -45
-243 -45 -59 -25 -115 48 -135 54 -15 289 -14 362 1 61 13 101 42 110 80 4 19
-4 38 -35 79 -23 30 -40 64 -40 80 -1 129 -22 415 -34 456 -20 65 -61 114
-127 150 -48 26 -64 29 -144 30 -108 0 -146 -16 -214 -87 -63 -67 -91 -63 -91
16 0 17 -7 42 -16 54 -21 31 -65 28 -208 -14z"/>
<path d="M15058 1415 c-96 -19 -237 -63 -280 -87 -41 -23 -63 -65 -53 -98 4
-11 24 -32 45 -45 22 -14 44 -34 50 -44 6 -12 11 -86 11 -174 0 -175 -9 -213
-66 -260 -28 -22 -35 -36 -35 -63 0 -78 90 -108 320 -106 188 2 268 31 285
105 6 23 1 34 -34 69 -23 23 -46 49 -52 59 -5 10 -9 147 -9 311 0 339 -1 342
-70 345 -25 1 -75 -5 -112 -12z"/>
<path d="M15638 1395 c-129 -38 -236 -83 -257 -109 -23 -28 -16 -74 16 -99 65
-51 63 -44 62 -209 0 -204 -8 -245 -49 -280 -36 -30 -45 -73 -20 -103 41 -49
172 -71 334 -56 123 12 169 29 189 68 16 34 13 55 -19 105 -23 36 -24 46 -24
205 0 140 3 174 18 203 16 32 21 35 67 38 30 2 57 -2 68 -10 27 -20 47 -113
47 -224 0 -128 -13 -196 -45 -238 -45 -60 -25 -117 48 -137 53 -15 288 -14
362 1 103 21 140 87 83 148 -14 15 -30 36 -36 48 -6 11 -16 117 -21 235 -6
118 -16 232 -22 253 -36 128 -162 207 -310 194 -72 -6 -123 -32 -178 -90 -63
-67 -91 -63 -91 16 0 17 -7 42 -16 54 -21 31 -65 28 -206 -13z"/>
<path d="M19929 1405 c-120 -33 -245 -82 -276 -109 -37 -32 -36 -78 3 -108 66
-52 64 -45 63 -205 -1 -209 -8 -250 -49 -285 -53 -44 -44 -100 22 -134 78 -40
354 -37 437 5 59 31 68 76 25 140 -26 39 -26 40 -22 224 4 217 8 227 87 227
25 0 51 -4 58 -8 28 -18 46 -88 51 -197 5 -134 -8 -213 -47 -272 -34 -50 -31
-85 10 -115 35 -27 164 -39 301 -28 160 12 208 35 210 100 1 20 -8 40 -24 58
-14 15 -31 37 -37 49 -6 12 -15 117 -21 233 -12 272 -26 320 -111 387 -77 61
-197 79 -295 46 -34 -11 -64 -33 -100 -71 -66 -69 -87 -68 -94 5 -9 89 -43 99
-191 58z"/>
<path d="M25155 1414 c-122 -29 -244 -75 -275 -104 -41 -38 -41 -81 -1 -111
49 -36 54 -61 49 -251 -3 -95 -10 -185 -16 -199 -5 -14 -26 -43 -46 -64 -50
-52 -45 -89 14 -120 71 -37 337 -36 430 1 65 26 76 66 39 149 -19 44 -21 62
-17 216 3 151 6 171 24 196 42 57 115 31 129 -44 3 -20 6 -99 6 -175 -1 -151
-10 -186 -55 -227 -52 -48 -23 -108 63 -131 59 -16 271 -16 344 -1 67 15 117
52 117 87 0 13 -12 48 -27 77 -27 51 -28 55 -28 229 0 174 0 177 25 203 33 35
84 32 114 -8 18 -25 21 -45 24 -171 4 -156 -6 -233 -38 -273 -70 -90 36 -156
250 -156 126 0 209 21 239 59 29 37 26 67 -9 116 l-30 41 0 231 c0 138 -5 247
-11 271 -36 130 -178 201 -330 165 -62 -14 -105 -37 -171 -92 -44 -36 -78 -49
-78 -29 0 4 -18 29 -40 54 -100 114 -297 98 -437 -34 -65 -61 -83 -56 -83 25
0 28 -7 59 -14 69 -16 21 -75 22 -161 1z"/>
<path d="M29830 1404 c-144 -33 -247 -72 -270 -102 -39 -48 -21 -93 55 -137
22 -13 33 -83 34 -217 1 -143 -11 -188 -65 -236 -50 -46 -56 -75 -24 -115 27
-35 69 -46 196 -57 188 -15 355 15 383 68 21 39 13 72 -25 105 -62 55 -64 64
-64 391 0 333 1 327 -73 325 -23 0 -89 -11 -147 -25z"/>
<path d="M31348 1415 c-96 -19 -237 -63 -280 -87 -41 -23 -63 -65 -53 -98 4
-11 24 -32 45 -45 22 -14 44 -34 50 -45 6 -11 11 -85 11 -172 1 -174 -8 -213
-66 -261 -27 -22 -35 -36 -35 -62 0 -78 91 -109 320 -107 191 2 270 32 286
108 5 26 0 35 -34 66 -23 20 -45 46 -51 57 -7 13 -11 124 -11 313 0 339 -1
342 -70 345 -25 1 -75 -5 -112 -12z"/>
<path d="M33105 1423 c-11 -3 -81 -25 -156 -49 -216 -72 -253 -117 -162 -201
47 -43 48 -43 51 -116 2 -39 -1 -128 -6 -196 -10 -123 -10 -123 -46 -160 -96
-98 -5 -165 224 -164 139 0 220 16 260 50 37 31 37 53 0 123 -29 54 -30 58
-30 200 0 151 10 216 38 238 24 19 106 15 125 -5 27 -31 39 -104 38 -230 0
-139 -10 -189 -46 -231 -40 -48 -30 -92 26 -123 56 -30 373 -28 432 2 76 40
86 88 30 149 l-36 41 -13 227 c-7 125 -17 241 -22 258 -38 123 -143 194 -286
194 -79 -1 -136 -26 -203 -92 -31 -31 -57 -49 -66 -45 -8 3 -16 24 -19 52 -9
75 -47 98 -133 78z"/>
<path d="M8595 946 c-40 -18 -95 -74 -111 -113 -16 -37 -18 -120 -5 -156 16
-41 71 -97 123 -123 61 -31 62 -49 6 -167 -47 -99 -46 -110 13 -139 47 -23 85
-13 135 37 79 79 145 254 145 385 0 86 -13 136 -54 196 -56 83 -167 118 -252
80z"/>
<path d="M17759 937 c-86 -45 -129 -144 -105 -238 18 -67 55 -112 120 -142 49
-24 56 -30 56 -56 0 -17 -18 -65 -40 -107 -22 -43 -40 -85 -40 -94 0 -21 26
-45 63 -59 141 -54 317 326 252 546 -17 58 -79 133 -129 157 -50 24 -124 21
-177 -7z"/>
</g>
</svg>
